# xmcd CD database file
#
# Track frame offsets:
#	150
#	20197
#	40715
#	53597
#	78002
#	102972
#	128312
#	153562
#	168360
#	182690
#
# Disc length: 2623 seconds
#
# Revision: 0
# Processed by: cddbd v1.5.1PL2 Copyright (c) Steve Scherf et al.
# Submitted via: CDex 1.51
#
DISCID=6c0a3d0a
DTITLE=真梨邑ケイ - 二人の海岸通り
DYEAR=1995
DGENRE=Jazz
TTITLE0=THIS MASQUERADE
TTITLE1=BESAME MUCHO
TTITLE2=TENNESSEE WALTZ
TTITLE3=MI PROMESA CON CALVADOS
TTITLE4=ファイナル・フライト
TTITLE5=エトランゼ・ブレイク
TTITLE6=THE GARDEN OF ALLAH
TTITLE7=NIGHT AND DAY
TTITLE8=SENTIMENTAL JOURNEY
TTITLE9=QUIET NIGHT OF QUIET STARS
EXTD=YEAR: 1995
EXTT0=
EXTT1=
EXTT2=
EXTT3=
EXTT4=
EXTT5=
EXTT6=
EXTT7=
EXTT8=
EXTT9=
PLAYORDER=
